<?xml version="1.0" encoding="utf-8"?>
<svg viewBox="0 0 24 24" xmlns="http://www.w3.org/2000/svg">
  <path d="M 11.995 24 C 18.577 24 24 18.577 24 12.005 C 24 5.423 18.568 0 11.995 0 C 5.413 0 0 5.423 0 12.005 C 0 18.577 5.423 24 11.995 24 Z M 11.995 22.682 C 6.096 22.682 1.328 17.904 1.328 12.005 C 1.328 6.096 6.086 1.328 11.995 1.328 C 17.895 1.328 22.672 6.096 22.682 12.005 C 22.682 17.904 17.904 22.682 11.995 22.682 Z M 11.771 14.464 C 12.164 14.464 12.407 14.202 12.407 13.865 L 12.407 13.566 C 12.407 12.837 12.762 12.388 13.678 11.771 C 14.903 10.948 15.539 10.238 15.539 8.985 C 15.539 7.283 14.015 6.199 12.07 6.199 C 10.125 6.199 8.854 7.255 8.62 8.452 C 8.583 8.62 8.555 8.789 8.555 8.966 C 8.555 9.331 8.835 9.536 9.125 9.536 C 9.564 9.536 9.686 9.293 9.882 8.966 C 10.125 8.022 10.873 7.311 12.014 7.311 C 13.332 7.311 14.174 8.031 14.174 9.06 C 14.174 9.882 13.716 10.359 12.584 11.144 C 11.64 11.808 11.135 12.435 11.135 13.491 L 11.135 13.818 C 11.135 14.23 11.369 14.464 11.771 14.464 Z M 11.752 17.829 C 12.313 17.829 12.781 17.371 12.781 16.82 C 12.781 16.259 12.313 15.81 11.752 15.81 C 11.182 15.81 10.724 16.268 10.724 16.82 C 10.724 17.362 11.191 17.829 11.752 17.829 Z"/>
</svg>