<?xml version="1.0" encoding="utf-8"?>
<svg viewBox="0 0 24 17" xmlns="http://www.w3.org/2000/svg">
  <path d="M 0.995 1.97 L 2.927 1.97 C 3.476 1.97 3.921 1.525 3.921 0.985 C 3.921 0.446 3.476 0 2.927 0 L 0.995 0 C 0.446 0 0 0.446 0 0.985 C 0 1.525 0.446 1.97 0.995 1.97 Z M 7.103 1.629 L 23.356 1.629 C 23.726 1.629 24 1.355 24 0.985 C 24 0.626 23.726 0.35 23.356 0.35 L 7.103 0.35 C 6.734 0.35 6.46 0.626 6.46 0.985 C 6.46 1.355 6.734 1.629 7.103 1.629 Z M 0.995 9.235 L 2.927 9.235 C 3.476 9.235 3.921 8.789 3.921 8.249 C 3.921 7.709 3.476 7.265 2.927 7.265 L 0.995 7.265 C 0.446 7.265 0 7.709 0 8.249 C 0 8.789 0.446 9.235 0.995 9.235 Z M 7.103 8.894 L 23.356 8.894 C 23.726 8.894 24 8.619 24 8.249 C 24 7.889 23.726 7.615 23.356 7.615 L 7.103 7.615 C 6.734 7.615 6.46 7.889 6.46 8.249 C 6.46 8.619 6.734 8.894 7.103 8.894 Z M 0.995 16.499 L 2.927 16.499 C 3.476 16.499 3.921 16.054 3.921 15.514 C 3.921 14.975 3.476 14.529 2.927 14.529 L 0.995 14.529 C 0.446 14.529 0 14.975 0 15.514 C 0 16.054 0.446 16.499 0.995 16.499 Z M 7.103 16.158 L 23.356 16.158 C 23.726 16.158 24 15.884 24 15.514 C 24 15.154 23.726 14.879 23.356 14.879 L 7.103 14.879 C 6.734 14.879 6.46 15.154 6.46 15.514 C 6.46 15.884 6.734 16.158 7.103 16.158 Z"/>
</svg>