<?xml version="1.0" encoding="utf-8"?>
<svg viewBox="0 0 21 24" xmlns="http://www.w3.org/2000/svg">
  <path d="M 5.488 24 L 15.36 24 C 16.839 24 17.847 23.018 17.931 21.553 L 18.705 5.599 L 20.129 5.599 C 20.53 5.599 20.848 5.268 20.848 4.866 C 20.848 4.465 20.516 4.147 20.129 4.147 L 15.097 4.147 L 15.097 2.433 C 15.097 0.926 14.116 0 12.497 0 L 8.323 0 C 6.719 0 5.737 0.926 5.737 2.433 L 5.737 4.147 L 0.718 4.147 C 0.332 4.147 0 4.48 0 4.866 C 0 5.268 0.332 5.599 0.718 5.599 L 2.143 5.599 L 2.917 21.567 C 3 23.032 4.01 24 5.488 24 Z M 7.258 2.53 C 7.258 1.867 7.715 1.438 8.406 1.438 L 12.415 1.438 C 13.12 1.438 13.576 1.867 13.576 2.53 L 13.576 4.147 L 7.258 4.147 Z M 5.612 22.562 C 4.963 22.562 4.452 22.065 4.424 21.401 L 3.65 5.599 L 17.157 5.599 L 16.411 21.401 C 16.383 22.065 15.885 22.562 15.221 22.562 Z M 7.203 20.585 C 7.562 20.585 7.812 20.35 7.797 20.004 L 7.452 8.225 C 7.452 7.88 7.203 7.659 6.857 7.659 C 6.484 7.659 6.248 7.88 6.248 8.225 L 6.595 20.019 C 6.608 20.364 6.843 20.585 7.203 20.585 Z M 10.424 20.585 C 10.797 20.585 11.046 20.35 11.046 20.004 L 11.046 8.225 C 11.046 7.894 10.797 7.659 10.424 7.659 C 10.064 7.659 9.802 7.894 9.802 8.225 L 9.802 20.004 C 9.802 20.35 10.064 20.585 10.424 20.585 Z M 13.645 20.585 C 14.004 20.585 14.24 20.364 14.254 20.019 L 14.599 8.24 C 14.599 7.894 14.364 7.659 13.991 7.659 C 13.645 7.659 13.396 7.88 13.382 8.225 L 13.051 20.019 C 13.037 20.35 13.272 20.585 13.645 20.585 Z"/>
</svg>