<?xml version="1.0" encoding="utf-8"?>
<svg viewBox="0 0 19 24" xmlns="http://www.w3.org/2000/svg">
  <path d="M 9.379 15.699 C 9.682 15.699 9.944 15.447 9.944 15.143 L 9.944 3.168 L 9.902 1.618 L 10.989 2.73 L 12.936 4.728 C 13.036 4.837 13.196 4.904 13.331 4.904 C 13.618 4.904 13.845 4.685 13.845 4.399 C 13.845 4.247 13.787 4.129 13.677 4.019 L 9.784 0.185 C 9.649 0.051 9.522 0 9.379 0 C 9.236 0 9.101 0.051 8.966 0.185 L 5.065 4.019 C 4.955 4.129 4.896 4.247 4.896 4.399 C 4.896 4.685 5.115 4.904 5.41 4.904 C 5.545 4.904 5.705 4.837 5.806 4.728 L 7.753 2.73 L 8.848 1.609 L 8.815 3.168 L 8.815 15.143 C 8.815 15.447 9.068 15.699 9.379 15.699 Z M 3.101 24 L 15.641 24 C 17.688 24 18.741 22.938 18.741 20.915 L 18.741 9.674 C 18.741 7.651 17.688 6.59 15.641 6.59 L 12.506 6.59 L 12.506 7.736 L 15.615 7.736 C 16.87 7.736 17.604 8.41 17.604 9.733 L 17.604 20.857 C 17.604 22.18 16.87 22.854 15.615 22.854 L 3.127 22.854 C 1.837 22.854 1.146 22.18 1.146 20.857 L 1.146 9.733 C 1.146 8.41 1.837 7.736 3.127 7.736 L 6.253 7.736 L 6.253 6.59 L 3.101 6.59 C 1.053 6.59 0 7.635 0 9.674 L 0 20.915 C 0 22.955 1.053 24 3.101 24 Z"/>
</svg>