<?xml version="1.0" encoding="utf-8"?>
<svg viewBox="0 0 24 19" xmlns="http://www.w3.org/2000/svg">
  <path d="M 0 12.272 C 0 14.047 0.92 14.96 2.709 14.96 L 3.696 14.96 L 3.696 6.604 C 3.696 4.241 4.94 2.996 7.318 2.996 L 19.296 2.996 L 19.296 2.687 C 19.296 0.928 18.375 0 16.586 0 L 2.709 0 C 0.92 0 0 0.913 0 2.687 Z M 7.414 18.972 L 21.291 18.972 C 23.072 18.972 24 18.052 24 16.292 L 24 6.699 C 24 4.933 23.072 4.005 21.291 4.005 L 7.414 4.005 C 5.617 4.005 4.704 4.918 4.704 6.699 L 4.704 16.285 C 4.704 18.059 5.617 18.972 7.414 18.972 Z M 14.407 15.828 C 14.083 15.828 13.885 15.585 13.885 15.247 L 13.885 12.029 L 10.601 12.029 C 10.263 12.029 10.005 11.823 10.005 11.507 C 10.005 11.175 10.248 10.962 10.601 10.962 L 13.885 10.962 L 13.885 7.664 C 13.885 7.318 14.083 7.082 14.407 7.082 C 14.753 7.082 14.959 7.31 14.959 7.664 L 14.959 10.962 L 18.25 10.962 C 18.604 10.962 18.839 11.175 18.839 11.507 C 18.839 11.823 18.589 12.029 18.25 12.029 L 14.959 12.029 L 14.959 15.247 C 14.959 15.593 14.753 15.828 14.407 15.828 Z"/>
</svg>