<?xml version="1.0" encoding="utf-8"?>
<svg viewBox="0 0 24 24" xmlns="http://www.w3.org/2000/svg">
  <path d="M 11.995 24 C 18.577 24 24 18.577 24 12.005 C 24 5.423 18.568 0 11.995 0 C 5.413 0 0 5.423 0 12.005 C 0 18.577 5.423 24 11.995 24 Z M 10.677 17.811 C 10.406 17.811 10.2 17.708 9.994 17.446 L 6.591 13.407 C 6.47 13.248 6.395 13.071 6.395 12.883 C 6.395 12.519 6.675 12.238 7.031 12.238 C 7.255 12.238 7.442 12.322 7.62 12.566 L 10.649 16.203 L 16.39 7.171 C 16.539 6.937 16.745 6.806 16.96 6.806 C 17.296 6.806 17.614 7.059 17.614 7.414 C 17.614 7.582 17.53 7.769 17.437 7.919 L 11.332 17.446 C 11.163 17.689 10.948 17.811 10.677 17.811 Z"/>
</svg>